<svg width="32" height="32" viewBox="0 0 32 32" fill="none" xmlns="http://www.w3.org/2000/svg">
<path d="M26.6973 20.6507C25.8573 20.6307 24.8 20.5813 24.132 20.464C23.4093 20.336 22.54 20.088 21.928 19.8973C21.448 19.748 20.9253 19.88 20.5693 20.2347L17.6133 23.1733C15.5707 22.0973 13.9347 20.844 12.5493 19.4507C11.156 18.0653 9.90267 16.4293 8.82667 14.3867L11.7653 11.4293C12.12 11.0733 12.252 10.5507 12.1027 10.0707C11.9133 9.46 11.664 8.59067 11.5373 7.868C11.4187 7.2 11.3707 6.14267 11.3493 5.30267C11.332 4.576 10.74 4 10.0133 4H5.33333C4.74933 4 4 4.43733 4 5.33333C4 11.3853 6.45333 17.1653 10.6213 21.3787C14.8347 25.5467 20.6147 28 26.6667 28C27.5627 28 28 27.2507 28 26.6667V21.9867C28 21.26 27.424 20.668 26.6973 20.6507L26.6973 20.6507Z" fill="#EE3D48"/>
</svg>
