<svg width="24" height="24" viewBox="0 0 24 24" fill="none" xmlns="http://www.w3.org/2000/svg">
<path d="M12 8C12.2337 7.99954 12.4601 8.08092 12.64 8.23L18.64 13.23C18.8442 13.3997 18.9727 13.6436 18.9971 13.9081C19.0214 14.1725 18.9398 14.4358 18.77 14.64C18.6003 14.8442 18.3564 14.9726 18.092 14.997C17.8275 15.0214 17.5642 14.9397 17.36 14.77L12 10.29L6.64003 14.61C6.53774 14.6931 6.42004 14.7551 6.29371 14.7925C6.16737 14.83 6.03488 14.8421 5.90385 14.8281C5.77282 14.8142 5.64584 14.7745 5.5302 14.7113C5.41456 14.6481 5.31255 14.5627 5.23003 14.46C5.13845 14.3572 5.06909 14.2366 5.0263 14.1057C4.98351 13.9748 4.9682 13.8365 4.98135 13.6994C4.99449 13.5624 5.03579 13.4295 5.10268 13.3091C5.16956 13.1888 5.26058 13.0835 5.37003 13L11.37 8.17C11.5551 8.04448 11.7769 7.98463 12 8Z" fill="white"/>
</svg>
